<svg width="924" height="994" viewBox="0 0 924 994" fill="none" xmlns="http://www.w3.org/2000/svg">
<path d="M194.367 1C113.466 1 6.86719 64.5 1.36719 74.5L369.367 268C404.398 239.7 425.867 202.826 425.867 162.5C425.867 73.306 322.221 1 194.367 1Z" fill="#E42727"/>
<path d="M531.867 50C531.867 63.2548 521.122 74 507.867 74C494.612 74 483.867 63.2548 483.867 50C483.867 36.7452 494.612 26 507.867 26C521.122 26 531.867 36.7452 531.867 50Z" fill="#E42727"/>
<path d="M922.867 404C922.867 417.255 912.122 428 898.867 428C885.612 428 874.867 417.255 874.867 404C874.867 390.745 885.612 380 898.867 380C912.122 380 922.867 390.745 922.867 404Z" fill="#E42727"/>
<path d="M757.255 992.541C757.043 954.236 730.129 921 588.673 921C447.216 921 419.696 954.236 419.479 992.541H757.255Z" fill="#E42727"/>
<path d="M414.867 115L496.867 61.5M486.867 52.5L408.867 102.5M521.867 68.5L876.367 404.5M881.867 387.5L529.867 57.5M882.867 420L609.071 920.258M629.867 922L897.867 426M757.255 992.541C757.043 954.236 730.129 921 588.673 921C447.216 921 419.696 954.236 419.479 992.541M757.255 992.541C757.256 992.694 757.256 992.847 757.256 993M757.255 992.541H419.479M757.255 992.541H757.867M419.478 993C419.478 992.847 419.478 992.694 419.479 992.541M419.479 992.541H418.867M1.36719 74.5C6.86719 64.5 113.466 1 194.367 1C322.221 1 425.867 73.306 425.867 162.5C425.867 202.826 404.398 239.7 369.367 268L1.36719 74.5ZM531.867 50C531.867 63.2548 521.122 74 507.867 74C494.612 74 483.867 63.2548 483.867 50C483.867 36.7452 494.612 26 507.867 26C521.122 26 531.867 36.7452 531.867 50ZM922.867 404C922.867 417.255 912.122 428 898.867 428C885.612 428 874.867 417.255 874.867 404C874.867 390.745 885.612 380 898.867 380C912.122 380 922.867 390.745 922.867 404Z" stroke="#E42727" stroke-width="2"/>
</svg>
